<svg width="374" height="216" viewBox="0 0 374 216" fill="none" xmlns="http://www.w3.org/2000/svg">
<path d="M100.53 10.4572C100.388 10.2847 100.175 10.1933 99.9518 10.2339C99.7286 10.2644 99.546 10.4064 99.4648 10.6094L97.6283 15.0955C97.5674 15.2477 97.5674 15.4101 97.6283 15.5623C97.6892 15.7146 97.8109 15.8364 97.9733 15.8973L98.0544 15.9277C98.1255 15.9582 98.2066 15.9683 98.2878 15.9683C98.5313 15.9683 98.7647 15.8262 98.8662 15.5826L100.206 12.3044C100.216 12.2841 100.236 12.2739 100.246 12.2739C100.256 12.2739 100.277 12.2739 100.297 12.2942L102.499 15.0752C102.712 15.3391 103.097 15.3898 103.361 15.1767L103.432 15.1158C103.564 15.0143 103.645 14.8722 103.665 14.7098C103.686 14.5474 103.635 14.385 103.534 14.2531L100.53 10.4572Z" fill="#E5C580"/>
<path d="M98.7543 5.61636C98.8761 5.7686 99.0486 5.84979 99.2414 5.84979C99.2718 5.84979 99.3022 5.84979 99.3327 5.83964C99.5559 5.80919 99.7385 5.6671 99.8197 5.46411L101.656 0.978073C101.717 0.825832 101.717 0.663441 101.656 0.5112C101.585 0.369108 101.463 0.247315 101.311 0.186419L101.23 0.155971C100.916 0.0240282 100.55 0.176269 100.418 0.490901L99.079 3.75901C99.0689 3.78946 99.0486 3.78946 99.0384 3.78946C99.0283 3.78946 99.008 3.78946 98.9877 3.76916L96.7859 0.988223C96.5728 0.724338 96.1873 0.673591 95.9234 0.886729L95.8423 0.947625C95.7104 1.04912 95.6292 1.19121 95.6089 1.3536C95.5886 1.51599 95.6393 1.67838 95.7408 1.80018L98.7543 5.61636Z" fill="#E5C580"/>
<path d="M101.413 6.67146C101.535 6.8237 101.717 6.9049 101.9 6.9049C101.93 6.9049 101.961 6.9049 101.991 6.89475L106.851 6.22489C107.014 6.20459 107.166 6.11324 107.257 5.9813C107.359 5.84936 107.399 5.68697 107.369 5.53473L107.359 5.44338C107.308 5.10845 107.003 4.87502 106.659 4.92576L103.107 5.41293C103.077 5.41293 103.067 5.40278 103.056 5.39263C103.056 5.38249 103.056 5.37234 103.067 5.35204L104.406 2.08393C104.467 1.93168 104.467 1.76929 104.406 1.61705C104.345 1.46481 104.223 1.34302 104.071 1.28212L103.99 1.25167C103.665 1.11973 103.3 1.27197 103.168 1.5866L101.332 6.0625C101.25 6.26548 101.281 6.48877 101.413 6.67146Z" fill="#E5C580"/>
<path d="M97.8722 9.40176C97.7403 9.22922 97.5171 9.13787 97.2939 9.16832L92.4337 9.84833C92.2714 9.86863 92.1293 9.94983 92.0278 10.0818C91.9264 10.2137 91.8858 10.3761 91.9162 10.5283L91.9264 10.6197C91.9771 10.9546 92.2916 11.1881 92.6265 11.1373L96.1778 10.64C96.2082 10.64 96.2184 10.6501 96.2285 10.6603C96.2386 10.6704 96.2386 10.6907 96.2386 10.711L94.8993 13.9893C94.8384 14.1415 94.8384 14.3039 94.8993 14.4562C94.9602 14.6084 95.0819 14.7201 95.2341 14.7809L95.3153 14.8114C95.3863 14.8418 95.4675 14.852 95.5487 14.852C95.7922 14.852 96.0256 14.7099 96.127 14.4663L97.9636 9.98028C98.0346 9.80774 98.0041 9.5743 97.8722 9.40176Z" fill="#E5C580"/>
<path d="M107.795 8.42734L107.785 8.33599C107.734 8.00106 107.42 7.76763 107.085 7.81837L102.225 8.48823C102.002 8.51868 101.819 8.66077 101.738 8.87391C101.657 9.0769 101.687 9.30019 101.829 9.47273L104.853 13.2788C104.974 13.431 105.157 13.5122 105.34 13.5122C105.472 13.5122 105.604 13.4716 105.715 13.3803L105.786 13.3194C105.918 13.2179 105.999 13.0758 106.02 12.9134C106.04 12.751 105.989 12.5886 105.888 12.4567L103.676 9.67572C103.666 9.66557 103.676 9.65542 103.676 9.64527C103.676 9.63512 103.686 9.61482 103.716 9.61482L107.268 9.12765C107.43 9.10735 107.582 9.016 107.673 8.88406C107.775 8.75212 107.816 8.58973 107.795 8.42734Z" fill="#E5C580"/>
<path d="M92.21 8.25483L97.0702 7.58496C97.2934 7.55452 97.4761 7.41242 97.5572 7.19929C97.6384 6.9963 97.608 6.77301 97.4659 6.60047L94.4422 2.79444C94.2292 2.53056 93.8436 2.47981 93.5798 2.69295L93.5088 2.74369C93.3768 2.84519 93.2957 2.98728 93.2754 3.14967C93.2551 3.31206 93.2957 3.47445 93.3971 3.60639L95.6091 6.38733C95.6192 6.39748 95.6192 6.41778 95.6192 6.42793C95.6192 6.43808 95.6091 6.45838 95.5786 6.45838L92.0274 6.94555C91.865 6.96585 91.7128 7.0572 91.6215 7.18914C91.52 7.32108 91.4794 7.48347 91.5099 7.63571L91.52 7.72706C91.5606 8.03154 91.8244 8.25483 92.1288 8.25483C92.1491 8.26498 92.1796 8.25483 92.21 8.25483Z" fill="#E5C580"/>
<path d="M122.031 14.4336C120.99 15.4711 119.655 16 118.026 16C116.398 16 115.043 15.4711 113.981 14.4234C113.263 13.7114 112.787 12.8773 112.544 11.911C112.362 11.138 112.969 10.4056 113.768 10.3649C114.395 10.3344 114.931 10.7514 115.093 11.3516C115.235 11.8398 115.467 12.267 115.821 12.6332C116.398 13.2333 117.126 13.5283 118.026 13.5283C118.896 13.5283 119.614 13.2333 120.17 12.6332C120.727 12.0331 121.01 11.26 121.01 10.3242V1.27146C121.01 0.569612 121.586 0 122.294 0H122.304C123.012 0 123.589 0.569612 123.589 1.27146V10.4463C123.589 12.0534 123.073 13.3961 122.031 14.4336Z" fill="#E5C580"/>
<path d="M145.273 2.83845V7.32415C145.273 7.48689 145.405 7.60895 145.566 7.60895H148.692C149.551 7.60895 150.239 7.37501 150.755 6.89694C151.271 6.42904 151.534 5.81874 151.534 5.07621C151.534 4.33368 151.271 3.73355 150.755 3.25549C150.239 2.77742 149.551 2.54347 148.702 2.54347H145.576C145.405 2.55364 145.273 2.68587 145.273 2.83845ZM151.331 15.2275L148.368 10.1722C148.317 10.0807 148.216 10.0298 148.115 10.0298H145.566C145.405 10.0298 145.273 10.162 145.273 10.3146V14.5969C145.273 15.2885 144.707 15.8378 144.019 15.8378H143.928C143.23 15.8378 142.674 15.2784 142.674 14.5969V0.702404C142.674 0.387082 142.937 0.12262 143.26 0.12262H148.853C150.391 0.12262 151.665 0.590515 152.677 1.52631C153.688 2.4621 154.194 3.65218 154.194 5.09656C154.194 6.14424 153.9 7.08003 153.314 7.89376C152.727 8.70749 151.948 9.29745 150.967 9.65345L153.516 13.9561C154.012 14.7901 153.405 15.8378 152.434 15.8378C151.969 15.848 151.554 15.614 151.331 15.2275Z" fill="#E5C580"/>
<path d="M162.73 13.4475C164.328 13.4475 165.643 12.9389 166.664 11.9116C167.686 10.8842 168.191 9.58225 168.191 7.99547C168.191 6.4087 167.686 5.10673 166.664 4.07939C165.643 3.05205 164.338 2.54347 162.73 2.54347H160.11C159.948 2.54347 159.817 2.6757 159.817 2.82828V13.1525C159.817 13.3152 159.948 13.4373 160.11 13.4373H162.73V13.4475ZM162.801 0.132791C163.954 0.132791 165.026 0.326053 166.027 0.722747C167.028 1.11944 167.878 1.65854 168.586 2.35021C169.294 3.04188 169.84 3.87596 170.245 4.85244C170.649 5.82891 170.851 6.87659 170.851 7.99547C170.851 9.49071 170.507 10.8435 169.82 12.0438C169.132 13.244 168.171 14.1798 166.947 14.8512C165.724 15.5225 164.338 15.8582 162.811 15.8582H157.784C157.46 15.8582 157.197 15.6039 157.197 15.2784V0.702403C157.197 0.387082 157.46 0.12262 157.784 0.12262H162.801V0.132791Z" fill="#E5C580"/>
<path d="M176.313 13.417H181.684C182.341 13.417 182.867 13.9459 182.867 14.5969V14.6782C182.867 15.3292 182.331 15.8582 181.684 15.8582H173.987C173.663 15.8582 173.4 15.6039 173.4 15.2784V0.702403C173.4 0.387082 173.663 0.12262 173.987 0.12262H181.441C182.098 0.12262 182.634 0.651545 182.634 1.30253V1.37373C182.634 2.02472 182.098 2.55364 181.441 2.55364H176.313C176.151 2.55364 176.02 2.68587 176.02 2.83845V6.35784C176.02 6.52059 176.151 6.64265 176.313 6.64265H180.854C181.512 6.64265 182.038 7.17157 182.038 7.82256V7.8429C182.038 8.49389 181.501 9.02281 180.854 9.02281H176.313C176.151 9.02281 176.02 9.15504 176.02 9.30762V13.122C176.02 13.2847 176.151 13.417 176.313 13.417Z" fill="#E5C580"/>
<path d="M197.138 0.132791H197.148C197.846 0.132791 198.412 0.692232 198.412 1.3839V14.424C198.412 15.2072 197.765 15.848 196.966 15.848H196.956C196.491 15.848 196.066 15.6242 195.793 15.258L188.5 5.34067C188.339 5.1169 187.975 5.22879 187.975 5.51359V14.5969C187.975 15.2885 187.408 15.848 186.71 15.848H186.68C185.982 15.848 185.416 15.2885 185.416 14.5969V1.66871C185.416 0.814292 186.114 0.12262 186.973 0.12262C187.469 0.12262 187.944 0.356568 188.238 0.763433L195.327 10.4468C195.489 10.6706 195.853 10.5587 195.853 10.2739V1.3839C195.874 0.692232 196.44 0.132791 197.138 0.132791Z" fill="#E5C580"/>
<path d="M139.751 14.0985L134.38 1.2415C134.097 0.570172 133.43 0.12262 132.691 0.12262C131.943 0.12262 131.275 0.570172 130.992 1.26184L125.784 14.1086C125.45 14.9427 126.067 15.848 126.967 15.848C127.493 15.848 127.968 15.5327 128.16 15.0444L132.267 4.63883C132.428 4.23197 133.015 4.23197 133.177 4.63883L135.331 10.0298H132.752C132.085 10.0298 131.538 10.5689 131.538 11.2402C131.538 11.9116 132.085 12.4507 132.752 12.4507H136.302L137.344 15.0546C137.536 15.5428 138.011 15.8582 138.537 15.8582H138.588C139.478 15.848 140.095 14.9325 139.751 14.0985Z" fill="#E5C580"/>
<path d="M212.333 0.380948C213.413 0.380948 214.413 0.574351 215.354 0.950977C216.294 1.3276 217.087 1.85692 217.74 2.52874C218.404 3.20056 218.919 4.0047 219.295 4.95136C219.671 5.89801 219.859 6.90574 219.859 7.99491C219.859 9.08407 219.671 10.102 219.295 11.0486C218.919 11.9953 218.394 12.7994 217.74 13.4713C217.087 14.1431 216.285 14.6724 215.354 15.049C214.423 15.4256 213.413 15.619 212.353 15.619H206.748V0.380948H212.333ZM212.264 12.5653C213.532 12.5653 214.571 12.1378 215.373 11.2828C216.176 10.4277 216.582 9.32837 216.582 7.99491C216.582 6.66145 216.176 5.5621 215.373 4.71724C214.571 3.87238 213.532 3.44485 212.264 3.44485H209.937V12.5653H212.264Z" fill="#E5C580"/>
<path d="M222.773 15.619V0.38092H225.686V15.619H222.773Z" fill="#E5C580"/>
<path d="M237.782 15.6089L234.916 10.4143H232.873V15.6089H229.692V0.38092H235.632C237.105 0.38092 238.332 0.858699 239.314 1.81426C240.286 2.76981 240.777 3.96934 240.777 5.43318C240.777 6.41923 240.541 7.29347 240.06 8.07621C239.579 8.84879 238.931 9.44855 238.097 9.86534L241.346 15.619H237.782V15.6089ZM232.873 3.43057V7.37479H235.416C236.074 7.37479 236.594 7.19181 236.977 6.82585C237.36 6.45989 237.547 5.99228 237.547 5.41285C237.547 4.83341 237.36 4.35563 236.977 3.98968C236.594 3.62372 236.074 3.44074 235.416 3.44074H232.873V3.43057Z" fill="#E5C580"/>
<path d="M247.086 12.547H253.001V15.619H243.896V0.38092H252.774V3.43261H247.086V6.44361H252.211V9.43426H247.086V12.547Z" fill="#E5C580"/>
<path d="M262.506 16C261.434 16 260.421 15.795 259.468 15.385C258.515 14.975 257.701 14.4113 257.025 13.7143C256.35 13.007 255.814 12.1563 255.417 11.1723C255.02 10.1883 254.821 9.13261 254.821 8.01538C254.821 6.88789 255.02 5.83216 255.417 4.83792C255.814 3.84369 256.35 2.99295 257.025 2.28571C257.701 1.57848 258.515 1.02498 259.468 0.61499C260.421 0.204997 261.434 0 262.506 0C264.313 0 265.871 0.563741 267.202 1.69122C268.522 2.81871 269.356 4.29468 269.704 6.1089H266.477C266.169 5.19667 265.663 4.47918 264.958 3.95644C264.253 3.4337 263.439 3.1672 262.506 3.1672C261.245 3.1672 260.193 3.62844 259.349 4.55093C258.505 5.47341 258.088 6.63165 258.088 8.01538C258.088 9.38885 258.505 10.5368 259.349 11.4593C260.193 12.3716 261.245 12.8328 262.506 12.8328C263.479 12.8328 264.323 12.5458 265.037 11.9821C265.752 11.4183 266.239 10.6393 266.507 9.6656H269.753C269.416 11.5618 268.582 13.0993 267.251 14.2575C265.921 15.4158 264.342 16 262.506 16Z" fill="#E5C580"/>
<path d="M282.5 0.38092V3.44278H278.431V15.619H275.269V3.44278H271.21V0.38092H282.5Z" fill="#E5C580"/>
<path d="M87.826 110.28C83.9806 110.28 80.5086 109.421 77.41 107.704C74.3486 105.987 71.922 103.616 70.13 100.592C68.3753 97.568 67.498 94.1707 67.498 90.4C67.498 86.6293 68.3753 83.232 70.13 80.208C71.922 77.184 74.3486 74.8133 77.41 73.096C80.5086 71.3787 83.9806 70.52 87.826 70.52C90.6633 70.52 93.2766 70.9867 95.666 71.92C98.0553 72.816 100.09 74.16 101.77 75.952L99.978 77.8C96.842 74.7013 92.8286 73.152 87.938 73.152C84.6526 73.152 81.666 73.8987 78.978 75.392C76.29 76.8853 74.1806 78.9573 72.65 81.608C71.1193 84.2213 70.354 87.152 70.354 90.4C70.354 93.648 71.1193 96.5973 72.65 99.248C74.1806 101.861 76.29 103.915 78.978 105.408C81.666 106.901 84.6526 107.648 87.938 107.648C92.7913 107.648 96.8046 106.08 99.978 102.944L101.77 104.792C100.09 106.584 98.0366 107.947 95.61 108.88C93.2206 109.813 90.626 110.28 87.826 110.28ZM127.148 110.28C123.302 110.28 119.83 109.421 116.732 107.704C113.633 105.949 111.188 103.56 109.396 100.536C107.641 97.512 106.764 94.1333 106.764 90.4C106.764 86.6667 107.641 83.288 109.396 80.264C111.188 77.24 113.633 74.8693 116.732 73.152C119.83 71.3973 123.302 70.52 127.148 70.52C130.993 70.52 134.465 71.3787 137.564 73.096C140.662 74.8133 143.089 77.184 144.844 80.208C146.636 83.232 147.532 86.6293 147.532 90.4C147.532 94.1707 146.636 97.568 144.844 100.592C143.089 103.616 140.662 105.987 137.564 107.704C134.465 109.421 130.993 110.28 127.148 110.28ZM127.148 107.648C130.433 107.648 133.401 106.901 136.052 105.408C138.702 103.915 140.793 101.861 142.324 99.248C143.854 96.5973 144.62 93.648 144.62 90.4C144.62 87.152 143.854 84.2213 142.324 81.608C140.793 78.9573 138.702 76.8853 136.052 75.392C133.401 73.8987 130.433 73.152 127.148 73.152C123.862 73.152 120.876 73.8987 118.188 75.392C115.537 76.8853 113.446 78.9573 111.916 81.608C110.385 84.2213 109.62 87.152 109.62 90.4C109.62 93.648 110.385 96.5973 111.916 99.248C113.446 101.861 115.537 103.915 118.188 105.408C120.876 106.901 123.862 107.648 127.148 107.648ZM194.509 110L194.453 76.456L178.045 104.792H176.645L160.237 76.568V110H157.437V70.8H159.845L177.373 101.096L194.901 70.8H197.253L197.309 110H194.509ZM210.977 70.8H213.833V110H210.977V70.8ZM259.412 70.8V110H257.06L230.348 75.952V110H227.492V70.8H229.9L256.556 104.848V70.8H259.412ZM301.102 90.568H303.846V105.24C302.128 106.883 300.038 108.133 297.574 108.992C295.147 109.851 292.571 110.28 289.846 110.28C285.963 110.28 282.454 109.421 279.318 107.704C276.219 105.987 273.774 103.616 271.982 100.592C270.227 97.568 269.35 94.1707 269.35 90.4C269.35 86.6293 270.227 83.232 271.982 80.208C273.774 77.184 276.219 74.8133 279.318 73.096C282.454 71.3787 285.982 70.52 289.902 70.52C292.776 70.52 295.408 70.9867 297.798 71.92C300.224 72.816 302.296 74.1413 304.014 75.896L302.222 77.8C300.579 76.1573 298.731 74.9813 296.678 74.272C294.662 73.5253 292.422 73.152 289.958 73.152C286.598 73.152 283.555 73.8987 280.83 75.392C278.142 76.8853 276.032 78.9573 274.502 81.608C272.971 84.2213 272.206 87.152 272.206 90.4C272.206 93.6107 272.971 96.5413 274.502 99.192C276.07 101.805 278.198 103.877 280.886 105.408C283.574 106.901 286.598 107.648 289.958 107.648C294.438 107.648 298.152 106.453 301.102 104.064V90.568ZM116.998 194.56C113.974 194.56 111.043 194.131 108.206 193.272C105.406 192.413 103.185 191.275 101.542 189.856L104.062 184.2C105.667 185.469 107.627 186.515 109.942 187.336C112.294 188.12 114.646 188.512 116.998 188.512C119.91 188.512 122.075 188.045 123.494 187.112C124.95 186.179 125.678 184.947 125.678 183.416C125.678 182.296 125.267 181.381 124.446 180.672C123.662 179.925 122.654 179.347 121.422 178.936C120.19 178.525 118.51 178.059 116.382 177.536C113.395 176.827 110.969 176.117 109.102 175.408C107.273 174.699 105.686 173.597 104.342 172.104C103.035 170.573 102.382 168.52 102.382 165.944C102.382 163.779 102.961 161.819 104.118 160.064C105.313 158.272 107.086 156.853 109.438 155.808C111.827 154.763 114.739 154.24 118.174 154.24C120.563 154.24 122.915 154.539 125.23 155.136C127.545 155.733 129.542 156.592 131.222 157.712L128.926 163.368C127.209 162.36 125.417 161.595 123.55 161.072C121.683 160.549 119.873 160.288 118.118 160.288C115.243 160.288 113.097 160.773 111.678 161.744C110.297 162.715 109.606 164.003 109.606 165.608C109.606 166.728 109.998 167.643 110.782 168.352C111.603 169.061 112.63 169.621 113.862 170.032C115.094 170.443 116.774 170.909 118.902 171.432C121.814 172.104 124.203 172.813 126.07 173.56C127.937 174.269 129.523 175.371 130.83 176.864C132.174 178.357 132.846 180.373 132.846 182.912C132.846 185.077 132.249 187.037 131.054 188.792C129.897 190.547 128.123 191.947 125.734 192.992C123.345 194.037 120.433 194.56 116.998 194.56ZM158.377 194.56C154.382 194.56 150.779 193.701 147.569 191.984C144.358 190.229 141.838 187.821 140.009 184.76C138.179 181.661 137.265 178.208 137.265 174.4C137.265 170.592 138.179 167.157 140.009 164.096C141.838 160.997 144.358 158.589 147.569 156.872C150.779 155.117 154.382 154.24 158.377 154.24C162.371 154.24 165.974 155.117 169.185 156.872C172.395 158.589 174.915 160.979 176.745 164.04C178.574 167.101 179.489 170.555 179.489 174.4C179.489 178.245 178.574 181.699 176.745 184.76C174.915 187.821 172.395 190.229 169.185 191.984C165.974 193.701 162.371 194.56 158.377 194.56ZM158.377 188.176C160.99 188.176 163.342 187.597 165.433 186.44C167.523 185.245 169.166 183.603 170.361 181.512C171.555 179.384 172.153 177.013 172.153 174.4C172.153 171.787 171.555 169.435 170.361 167.344C169.166 165.216 167.523 163.573 165.433 162.416C163.342 161.221 160.99 160.624 158.377 160.624C155.763 160.624 153.411 161.221 151.321 162.416C149.23 163.573 147.587 165.216 146.393 167.344C145.198 169.435 144.601 171.787 144.601 174.4C144.601 177.013 145.198 179.384 146.393 181.512C147.587 183.603 149.23 185.245 151.321 186.44C153.411 187.597 155.763 188.176 158.377 188.176ZM205.517 194.56C201.523 194.56 197.92 193.701 194.709 191.984C191.499 190.229 188.979 187.821 187.149 184.76C185.32 181.661 184.405 178.208 184.405 174.4C184.405 170.592 185.32 167.157 187.149 164.096C188.979 160.997 191.499 158.589 194.709 156.872C197.92 155.117 201.523 154.24 205.517 154.24C209.512 154.24 213.115 155.117 216.325 156.872C219.536 158.589 222.056 160.979 223.885 164.04C225.715 167.101 226.629 170.555 226.629 174.4C226.629 178.245 225.715 181.699 223.885 184.76C222.056 187.821 219.536 190.229 216.325 191.984C213.115 193.701 209.512 194.56 205.517 194.56ZM205.517 188.176C208.131 188.176 210.483 187.597 212.573 186.44C214.664 185.245 216.307 183.603 217.501 181.512C218.696 179.384 219.293 177.013 219.293 174.4C219.293 171.787 218.696 169.435 217.501 167.344C216.307 165.216 214.664 163.573 212.573 162.416C210.483 161.221 208.131 160.624 205.517 160.624C202.904 160.624 200.552 161.221 198.461 162.416C196.371 163.573 194.728 165.216 193.533 167.344C192.339 169.435 191.741 171.787 191.741 174.4C191.741 177.013 192.339 179.384 193.533 181.512C194.728 183.603 196.371 185.245 198.461 186.44C200.552 187.597 202.904 188.176 205.517 188.176ZM269.178 154.8V194H263.186L241.57 167.456V194H234.346V154.8H240.338L261.954 181.344V154.8H269.178Z" fill="white"/>
</svg>
