<svg width="375" height="812" viewBox="0 0 375 812" fill="none" xmlns="http://www.w3.org/2000/svg">
<path opacity="0.5" d="M85.3412 753.862L87.5587 739.839C87.5587 739.839 86.1126 738.816 81.0354 740.419C75.9582 742.022 74.0194 744.114 74.0194 744.114L85.3412 753.862Z" fill="#CDB072" stroke="#CDB072" stroke-linecap="round" stroke-linejoin="round"/>
<path opacity="0.5" d="M293.999 766.81L294.753 752.634C294.753 752.634 293.208 751.765 288.324 753.883C283.44 756.001 281.729 758.282 281.729 758.282L293.999 766.81Z" fill="#CDB072" stroke="#CDB072" stroke-linecap="round" stroke-linejoin="round"/>
<path d="M205.184 797.07L208.493 810.877C208.493 810.877 210.221 811.273 214.302 807.86C218.383 804.447 219.376 801.776 219.376 801.776L205.184 797.07Z" fill="#CDB072" stroke="#CDB072" stroke-linecap="round" stroke-linejoin="round"/>
<path opacity="0.25" d="M8.62775 172.736L11.9362 186.543C11.9362 186.543 13.6641 186.939 17.7452 183.526C21.8263 180.113 22.8192 177.442 22.8192 177.442L8.62775 172.736Z" fill="#CDB072" stroke="#CDB072" stroke-linecap="round" stroke-linejoin="round"/>
<path opacity="0.5" d="M164.127 97.4493L178.103 100.12C178.103 100.12 179.176 98.7117 177.736 93.5967C176.296 88.4817 174.264 86.48 174.264 86.48L164.127 97.4493Z" fill="#CDB072" stroke="#CDB072" stroke-linecap="round" stroke-linejoin="round"/>
<path d="M299.913 57.9016L313.386 53.3352C313.386 53.3352 313.621 51.582 309.836 47.8445C306.052 44.107 303.293 43.3685 303.293 43.3685L299.913 57.9016Z" fill="#CDB072" stroke="#CDB072" stroke-linecap="round" stroke-linejoin="round"/>
<path d="M392.297 65.1491L387.002 51.9728C387.002 51.9728 385.234 51.8326 381.697 55.8041C378.159 59.7755 377.568 62.5631 377.568 62.5631L392.297 65.1491Z" fill="#CDB072" stroke="#CDB072" stroke-linecap="round" stroke-linejoin="round"/>
<path opacity="0.5" d="M108.947 76.1393L119.118 66.2114C119.118 66.2114 118.571 64.529 113.538 62.7909C108.506 61.0528 105.698 61.5763 105.698 61.5763L108.947 76.1393Z" fill="#CDB072" stroke="#CDB072" stroke-linecap="round" stroke-linejoin="round"/>
<path d="M12.3658 793.035L26.3413 795.705C26.3413 795.705 27.4141 794.297 25.9744 789.182C24.5346 784.067 22.5021 782.065 22.5021 782.065L12.3658 793.035Z" fill="#CDB072" stroke="#CDB072" stroke-linecap="round" stroke-linejoin="round"/>
<path opacity="0.25" d="M326.405 671.324L340.38 673.994C340.38 673.994 341.453 672.586 340.013 667.471C338.573 662.356 336.541 660.354 336.541 660.354L326.405 671.324Z" fill="#CDB072" stroke="#CDB072" stroke-linecap="round" stroke-linejoin="round"/>
<path opacity="0.25" d="M294.276 167.572L297.075 153.654C297.075 153.654 295.672 152.571 290.533 153.963C285.393 155.355 283.369 157.365 283.369 157.365L294.276 167.572Z" fill="#CDB072" stroke="#CDB072" stroke-linecap="round" stroke-linejoin="round"/>
<path opacity="0.25" d="M47.2018 618.313L57.0248 628.584C57.0248 628.584 58.718 628.059 60.5232 623.06C62.3284 618.062 61.8389 615.255 61.8389 615.255L47.2018 618.313Z" fill="#CDB072" stroke="#CDB072" stroke-linecap="round" stroke-linejoin="round"/>
<path opacity="0.25" d="M158.745 678.02L172.893 676.498C172.893 676.498 173.506 674.838 170.63 670.367C167.754 665.895 165.224 664.574 165.224 664.574L158.745 678.02Z" fill="#CDB072" stroke="#CDB072" stroke-linecap="round" stroke-linejoin="round"/>
<path d="M225.545 0.256339L223.346 14.2816C223.346 14.2816 224.794 15.3033 229.869 13.6934C234.944 12.0834 236.88 9.98872 236.88 9.98872L225.545 0.256339Z" fill="#CDB072" stroke="#CDB072" stroke-linecap="round" stroke-linejoin="round"/>
<path d="M40.1338 48.4009L36.5655 34.6587C36.5655 34.6587 34.8303 34.2949 30.8143 37.7841C26.7983 41.2733 25.856 43.963 25.856 43.963L40.1338 48.4009Z" fill="#CDB072" stroke="#CDB072" stroke-linecap="round" stroke-linejoin="round"/>
<path opacity="0.5" d="M348.963 130.583L353.614 117.167C353.614 117.167 352.37 115.906 347.09 116.595C341.809 117.284 339.533 119.004 339.533 119.004L348.963 130.583Z" fill="#CDB072" stroke="#CDB072" stroke-linecap="round" stroke-linejoin="round"/>
</svg>
