<svg width="969" height="663" viewBox="0 0 969 663" fill="none" xmlns="http://www.w3.org/2000/svg">
<path opacity="0.5" d="M899.871 452.733L883.151 450.102C883.151 450.102 881.931 451.818 883.842 457.843C885.754 463.868 888.249 466.169 888.249 466.169L899.871 452.733Z" fill="#CDB072" stroke="#CDB072" stroke-linecap="round" stroke-linejoin="round"/>
<path opacity="0.5" d="M915.31 205.116L898.408 204.222C898.408 204.222 897.371 206.054 899.897 211.85C902.422 217.646 905.142 219.678 905.142 219.678L915.31 205.116Z" fill="#CDB072" stroke="#CDB072" stroke-linecap="round" stroke-linejoin="round"/>
<path d="M951.391 310.514L967.854 306.588C967.854 306.588 968.326 304.537 964.256 299.694C960.187 294.851 957.001 293.672 957.001 293.672L951.391 310.514Z" fill="#CDB072" stroke="#CDB072" stroke-linecap="round" stroke-linejoin="round"/>
<path opacity="0.25" d="M206.963 543.77L223.426 539.844C223.426 539.844 223.898 537.794 219.829 532.95C215.759 528.107 212.573 526.929 212.573 526.929L206.963 543.77Z" fill="#CDB072" stroke="#CDB072" stroke-linecap="round" stroke-linejoin="round"/>
<path opacity="0.5" d="M117.194 359.237L120.379 342.652C120.379 342.652 118.699 341.378 112.601 343.087C106.502 344.796 104.115 347.208 104.115 347.208L117.194 359.237Z" fill="#CDB072" stroke="#CDB072" stroke-linecap="round" stroke-linejoin="round"/>
<path d="M70.0393 198.098L64.5944 182.109C64.5944 182.109 62.504 181.83 58.0476 186.322C53.5912 190.813 52.7106 194.087 52.7106 194.087L70.0393 198.098Z" fill="#CDB072" stroke="#CDB072" stroke-linecap="round" stroke-linejoin="round"/>
<path d="M78.681 88.4646L62.9701 94.7484C62.9701 94.7484 62.803 96.8459 67.5383 101.044C72.2737 105.242 75.5975 105.943 75.5975 105.943L78.681 88.4646Z" fill="#CDB072" stroke="#CDB072" stroke-linecap="round" stroke-linejoin="round"/>
<path opacity="0.5" d="M91.7851 424.72L79.9476 412.65C79.9476 412.65 77.9415 413.299 75.8691 419.272C73.7966 425.244 74.4209 428.575 74.4209 428.575L91.7851 424.72Z" fill="#CDB072" stroke="#CDB072" stroke-linecap="round" stroke-linejoin="round"/>
<path opacity="0.25" d="M659.198 593.171L645.831 582.811C645.831 582.811 643.932 583.725 642.689 589.922C641.446 596.119 642.517 599.336 642.517 599.336L659.198 593.171Z" fill="#CDB072" stroke="#CDB072" stroke-linecap="round" stroke-linejoin="round"/>
<path d="M946.579 539.334L949.764 522.749C949.764 522.749 948.084 521.476 941.985 523.185C935.887 524.893 933.5 527.305 933.5 527.305L946.579 539.334Z" fill="#CDB072" stroke="#CDB072" stroke-linecap="round" stroke-linejoin="round"/>
<path opacity="0.25" d="M801.456 166.66L804.64 150.075C804.64 150.075 802.961 148.802 796.862 150.511C790.763 152.219 788.377 154.631 788.377 154.631L801.456 166.66Z" fill="#CDB072" stroke="#CDB072" stroke-linecap="round" stroke-linejoin="round"/>
<path opacity="0.25" d="M288.15 177.385L291.335 160.8C291.335 160.8 289.655 159.526 283.557 161.235C277.458 162.944 275.071 165.356 275.071 165.356L288.15 177.385Z" fill="#CDB072" stroke="#CDB072" stroke-linecap="round" stroke-linejoin="round"/>
<path opacity="0.25" d="M309.3 483.877L308.073 467.034C308.073 467.034 306.121 466.238 300.673 469.463C295.225 472.689 293.546 475.635 293.546 475.635L309.3 483.877Z" fill="#CDB072" stroke="#CDB072" stroke-linecap="round" stroke-linejoin="round"/>
<path opacity="0.25" d="M200.806 204.788L184.21 201.466C184.21 201.466 182.919 203.13 184.579 209.229C186.238 215.329 188.635 217.731 188.635 217.731L200.806 204.788Z" fill="#CDB072" stroke="#CDB072" stroke-linecap="round" stroke-linejoin="round"/>
<path opacity="0.25" d="M489.871 109.576L478.187 97.3583C478.187 97.3583 476.173 97.9828 474.025 103.928C471.878 109.874 472.46 113.213 472.46 113.213L489.871 109.576Z" fill="#CDB072" stroke="#CDB072" stroke-linecap="round" stroke-linejoin="round"/>
<path opacity="0.25" d="M738.249 497.994L750.495 486.337C750.495 486.337 749.869 484.328 743.909 482.185C737.949 480.043 734.602 480.624 734.602 480.624L738.249 497.994Z" fill="#CDB072" stroke="#CDB072" stroke-linecap="round" stroke-linejoin="round"/>
<path opacity="0.25" d="M809.441 365.624L807.626 348.835C807.626 348.835 805.647 348.107 800.315 351.52C794.983 354.933 793.408 357.935 793.408 357.935L809.441 365.624Z" fill="#CDB072" stroke="#CDB072" stroke-linecap="round" stroke-linejoin="round"/>
<path opacity="0.25" d="M669.77 75.5022L672.955 58.9173C672.955 58.9173 671.275 57.6441 665.177 59.3527C659.078 61.0613 656.691 63.4733 656.691 63.4733L669.77 75.5022Z" fill="#CDB072" stroke="#CDB072" stroke-linecap="round" stroke-linejoin="round"/>
<path d="M924.618 15.9272L916.46 1.13147C916.46 1.13147 914.353 1.2204 910.75 6.4189C907.148 11.6174 906.854 14.9939 906.854 14.9939L924.618 15.9272Z" fill="#CDB072" stroke="#CDB072" stroke-linecap="round" stroke-linejoin="round"/>
<path opacity="0.5" d="M825.643 88.9078L828.828 72.3228C828.828 72.3228 827.148 71.0497 821.049 72.7583C814.951 74.4668 812.564 76.8788 812.564 76.8788L825.643 88.9078Z" fill="#CDB072" stroke="#CDB072" stroke-linecap="round" stroke-linejoin="round"/>
<path d="M897.924 102.103L913.845 107.838C913.845 107.838 915.368 106.383 914.632 100.106C913.896 93.8294 911.882 91.0999 911.882 91.0999L897.924 102.103Z" fill="#CDB072" stroke="#CDB072" stroke-linecap="round" stroke-linejoin="round"/>
<path d="M1.3057 286.351L18.0288 288.961C18.0288 288.961 19.247 287.243 17.3274 281.22C15.4078 275.198 12.9101 272.9 12.9101 272.9L1.3057 286.351Z" fill="#CDB072" stroke="#CDB072" stroke-linecap="round" stroke-linejoin="round"/>
<path d="M58.7111 506.382L42.3255 510.616C42.3255 510.616 41.8917 512.675 46.0521 517.441C50.2124 522.207 53.4195 523.325 53.4195 523.325L58.7111 506.382Z" fill="#CDB072" stroke="#CDB072" stroke-linecap="round" stroke-linejoin="round"/>
<path d="M181.663 646.508L188.705 661.864C188.705 661.864 190.813 661.93 194.79 657.011C198.767 652.091 199.31 648.746 199.31 648.746L181.663 646.508Z" fill="#CDB072" stroke="#CDB072" stroke-linecap="round" stroke-linejoin="round"/>
<path opacity="0.5" d="M156.701 139.89L140.704 134.37C140.704 134.37 139.201 135.846 140.022 142.112C140.844 148.379 142.895 151.081 142.895 151.081L156.701 139.89Z" fill="#CDB072" stroke="#CDB072" stroke-linecap="round" stroke-linejoin="round"/>
</svg>
