<svg width="559" height="813" viewBox="0 0 559 813" fill="none" xmlns="http://www.w3.org/2000/svg">
<path opacity="0.5" d="M177.341 754.862L179.559 740.839C179.559 740.839 178.113 739.816 173.035 741.419C167.958 743.022 166.019 745.114 166.019 745.114L177.341 754.862Z" fill="#CDB072" stroke="#CDB072" stroke-linecap="round" stroke-linejoin="round"/>
<path opacity="0.5" d="M385.999 767.81L386.753 753.634C386.753 753.634 385.208 752.765 380.324 754.883C375.44 757.001 373.729 759.282 373.729 759.282L385.999 767.81Z" fill="#CDB072" stroke="#CDB072" stroke-linecap="round" stroke-linejoin="round"/>
<path d="M297.184 798.07L300.493 811.877C300.493 811.877 302.221 812.273 306.302 808.86C310.383 805.447 311.376 802.776 311.376 802.776L297.184 798.07Z" fill="#CDB072" stroke="#CDB072" stroke-linecap="round" stroke-linejoin="round"/>
<path opacity="0.25" d="M100.628 173.736L103.936 187.543C103.936 187.543 105.664 187.939 109.745 184.526C113.826 181.113 114.819 178.442 114.819 178.442L100.628 173.736Z" fill="#CDB072" stroke="#CDB072" stroke-linecap="round" stroke-linejoin="round"/>
<path opacity="0.5" d="M256.127 98.4493L270.103 101.12C270.103 101.12 271.176 99.7117 269.736 94.5967C268.296 89.4817 266.264 87.48 266.264 87.48L256.127 98.4493Z" fill="#CDB072" stroke="#CDB072" stroke-linecap="round" stroke-linejoin="round"/>
<path d="M391.913 58.9016L405.386 54.3352C405.386 54.3352 405.621 52.582 401.836 48.8445C398.052 45.107 395.293 44.3685 395.293 44.3685L391.913 58.9016Z" fill="#CDB072" stroke="#CDB072" stroke-linecap="round" stroke-linejoin="round"/>
<path d="M484.297 66.1491L479.002 52.9728C479.002 52.9728 477.234 52.8326 473.697 56.8041C470.159 60.7755 469.568 63.5631 469.568 63.5631L484.297 66.1491Z" fill="#CDB072" stroke="#CDB072" stroke-linecap="round" stroke-linejoin="round"/>
<path opacity="0.5" d="M200.947 77.1393L211.118 67.2114C211.118 67.2114 210.571 65.529 205.538 63.7909C200.506 62.0528 197.698 62.5763 197.698 62.5763L200.947 77.1393Z" fill="#CDB072" stroke="#CDB072" stroke-linecap="round" stroke-linejoin="round"/>
<path opacity="0.25" d="M58.9998 553.015L67.7298 541.805C67.7298 541.805 66.9591 540.212 61.7371 539.17C56.5151 538.127 53.8046 539.025 53.8046 539.025L58.9998 553.015Z" fill="#CDB072" stroke="#CDB072" stroke-linecap="round" stroke-linejoin="round"/>
<path d="M104.366 794.035L118.341 796.705C118.341 796.705 119.414 795.297 117.974 790.182C116.535 785.067 114.502 783.065 114.502 783.065L104.366 794.035Z" fill="#CDB072" stroke="#CDB072" stroke-linecap="round" stroke-linejoin="round"/>
<path opacity="0.25" d="M418.405 672.324L432.38 674.994C432.38 674.994 433.453 673.586 432.013 668.471C430.573 663.356 428.541 661.354 428.541 661.354L418.405 672.324Z" fill="#CDB072" stroke="#CDB072" stroke-linecap="round" stroke-linejoin="round"/>
<path opacity="0.25" d="M386.276 168.572L389.075 154.654C389.075 154.654 387.672 153.571 382.533 154.963C377.393 156.355 375.369 158.365 375.369 158.365L386.276 168.572Z" fill="#CDB072" stroke="#CDB072" stroke-linecap="round" stroke-linejoin="round"/>
<path opacity="0.25" d="M139.202 619.313L149.025 629.584C149.025 629.584 150.718 629.059 152.523 624.06C154.328 619.062 153.839 616.255 153.839 616.255L139.202 619.313Z" fill="#CDB072" stroke="#CDB072" stroke-linecap="round" stroke-linejoin="round"/>
<path opacity="0.25" d="M250.745 679.02L264.893 677.498C264.893 677.498 265.506 675.838 262.63 671.367C259.754 666.895 257.224 665.574 257.224 665.574L250.745 679.02Z" fill="#CDB072" stroke="#CDB072" stroke-linecap="round" stroke-linejoin="round"/>
<path opacity="0.25" d="M495.22 561.882L509.195 564.552C509.195 564.552 510.268 563.144 508.828 558.029C507.389 552.914 505.356 550.912 505.356 550.912L495.22 561.882Z" fill="#CDB072" stroke="#CDB072" stroke-linecap="round" stroke-linejoin="round"/>
<path d="M545.421 775.616L557.889 768.775C557.889 768.775 557.814 767.007 553.434 763.986C549.053 760.965 546.208 760.718 546.208 760.718L545.421 775.616Z" fill="#CDB072" stroke="#CDB072" stroke-linecap="round" stroke-linejoin="round"/>
<path opacity="0.5" d="M483.923 692.609L497.899 695.279C497.899 695.279 498.972 693.871 497.532 688.756C496.092 683.641 494.06 681.639 494.06 681.639L483.923 692.609Z" fill="#CDB072" stroke="#CDB072" stroke-linecap="round" stroke-linejoin="round"/>
<path d="M472.804 753.229L467.971 766.581C467.971 766.581 469.197 767.859 474.487 767.242C479.776 766.624 482.076 764.935 482.076 764.935L472.804 753.229Z" fill="#CDB072" stroke="#CDB072" stroke-linecap="round" stroke-linejoin="round"/>
<path d="M317.545 1.25634L315.346 15.2816C315.346 15.2816 316.794 16.3033 321.869 14.6934C326.944 13.0834 328.88 10.9887 328.88 10.9887L317.545 1.25634Z" fill="#CDB072" stroke="#CDB072" stroke-linecap="round" stroke-linejoin="round"/>
<path d="M132.134 49.4009L128.565 35.6587C128.565 35.6587 126.83 35.2949 122.814 38.7841C118.798 42.2733 117.856 44.963 117.856 44.963L132.134 49.4009Z" fill="#CDB072" stroke="#CDB072" stroke-linecap="round" stroke-linejoin="round"/>
<path d="M14.0546 152.518L1.11498 158.424C1.11498 158.424 1.05909 160.192 5.20442 163.527C9.34975 166.863 12.169 167.318 12.169 167.318L14.0546 152.518Z" fill="#CDB072" stroke="#CDB072" stroke-linecap="round" stroke-linejoin="round"/>
<path opacity="0.5" d="M440.963 131.583L445.614 118.167C445.614 118.167 444.37 116.906 439.09 117.595C433.809 118.284 431.533 120.004 431.533 120.004L440.963 131.583Z" fill="#CDB072" stroke="#CDB072" stroke-linecap="round" stroke-linejoin="round"/>
</svg>
