<svg width="559" height="196" viewBox="0 0 559 196" fill="none" xmlns="http://www.w3.org/2000/svg">
<path d="M107.06 20.9144C106.776 20.5693 106.35 20.3866 105.904 20.4678C105.457 20.5287 105.092 20.8129 104.93 21.2189L101.257 30.1909C101.135 30.4954 101.135 30.8202 101.257 31.1247C101.378 31.4292 101.622 31.6728 101.947 31.7946L102.109 31.8555C102.251 31.9163 102.413 31.9366 102.576 31.9366C103.063 31.9366 103.529 31.6525 103.732 31.1653L106.411 24.6088C106.431 24.5682 106.472 24.5479 106.492 24.5479C106.512 24.5479 106.553 24.5479 106.594 24.5885L110.997 30.1504C111.423 30.6781 112.195 30.7796 112.722 30.3533L112.864 30.2315C113.128 30.0286 113.29 29.7444 113.331 29.4196C113.372 29.0948 113.27 28.77 113.067 28.5061L107.06 20.9144Z" fill="#E5C580"/>
<path d="M103.509 11.2327C103.752 11.5372 104.097 11.6996 104.483 11.6996C104.544 11.6996 104.604 11.6996 104.665 11.6793C105.112 11.6184 105.477 11.3342 105.639 10.9282L109.312 1.95615C109.434 1.65166 109.434 1.32688 109.312 1.0224C109.17 0.738217 108.927 0.494631 108.623 0.372838L108.46 0.311941C107.831 0.0480565 107.101 0.352539 106.837 0.981803L104.158 7.51803C104.138 7.57892 104.097 7.57892 104.077 7.57892C104.057 7.57892 104.016 7.57892 103.975 7.53833L99.5718 1.97645C99.1456 1.44868 98.3745 1.34718 97.8469 1.77346L97.6845 1.89525C97.4207 2.09824 97.2584 2.38242 97.2178 2.7072C97.1772 3.03198 97.2787 3.35677 97.4816 3.60035L103.509 11.2327Z" fill="#E5C580"/>
<path d="M108.826 13.3429C109.069 13.6474 109.434 13.8098 109.8 13.8098C109.86 13.8098 109.921 13.8098 109.982 13.7895L119.703 12.4498C120.027 12.4092 120.332 12.2265 120.514 11.9626C120.717 11.6987 120.798 11.3739 120.738 11.0695L120.717 10.8868C120.616 10.2169 120.007 9.75003 119.317 9.85152L112.214 10.8259C112.154 10.8259 112.133 10.8056 112.113 10.7853C112.113 10.765 112.113 10.7447 112.133 10.7041L114.812 4.16785C114.934 3.86337 114.934 3.53859 114.812 3.23411C114.69 2.92962 114.447 2.68604 114.142 2.56424L113.98 2.50335C113.331 2.23946 112.6 2.54395 112.336 3.17321L108.663 12.125C108.501 12.531 108.562 12.9775 108.826 13.3429Z" fill="#E5C580"/>
<path d="M101.744 18.8035C101.481 18.4584 101.034 18.2757 100.588 18.3366L90.8674 19.6967C90.5427 19.7373 90.2586 19.8997 90.0557 20.1635C89.8527 20.4274 89.7716 20.7522 89.8325 21.0567L89.8527 21.2394C89.9542 21.9092 90.5833 22.3761 91.253 22.2746L98.3555 21.28C98.4164 21.28 98.4367 21.3003 98.457 21.3206C98.4773 21.3409 98.4773 21.3815 98.4773 21.4221L95.7986 27.9786C95.6769 28.2831 95.6769 28.6079 95.7986 28.9123C95.9204 29.2168 96.1639 29.4401 96.4683 29.5619L96.6306 29.6228C96.7727 29.6837 96.935 29.704 97.0974 29.704C97.5844 29.704 98.0511 29.4198 98.2541 28.9326L101.927 19.9606C102.069 19.6155 102.008 19.1486 101.744 18.8035Z" fill="#E5C580"/>
<path d="M121.59 16.8547L121.57 16.672C121.469 16.0021 120.84 15.5353 120.17 15.6367L110.45 16.9765C110.003 17.0374 109.638 17.3215 109.475 17.7478C109.313 18.1538 109.374 18.6004 109.658 18.9455L115.705 26.5575C115.949 26.862 116.314 27.0244 116.679 27.0244C116.943 27.0244 117.207 26.9432 117.43 26.7605L117.572 26.6387C117.836 26.4357 117.999 26.1515 118.039 25.8268C118.08 25.502 117.978 25.1772 117.775 24.9133L113.351 19.3514C113.331 19.3311 113.351 19.3108 113.351 19.2905C113.351 19.2702 113.372 19.2296 113.433 19.2296L120.535 18.2553C120.86 18.2147 121.164 18.032 121.347 17.7681C121.55 17.5042 121.631 17.1795 121.59 16.8547Z" fill="#E5C580"/>
<path d="M90.42 16.5097L100.14 15.1699C100.587 15.109 100.952 14.8248 101.114 14.3986C101.277 13.9926 101.216 13.546 100.932 13.2009L94.8845 5.58888C94.4583 5.06111 93.6872 4.95962 93.1596 5.38589L93.0175 5.48739C92.7537 5.69038 92.5914 5.97456 92.5508 6.29934C92.5102 6.62412 92.5914 6.9489 92.7943 7.21279L97.2182 12.7747C97.2385 12.795 97.2385 12.8356 97.2385 12.8559C97.2385 12.8762 97.2182 12.9168 97.1573 12.9168L90.0547 13.8911C89.73 13.9317 89.4256 14.1144 89.243 14.3783C89.0401 14.6422 88.9589 14.9669 89.0198 15.2714L89.0401 15.4541C89.1212 16.0631 89.6489 16.5097 90.2577 16.5097C90.2982 16.53 90.3591 16.5097 90.42 16.5097Z" fill="#E5C580"/>
<path d="M150.063 28.8671C147.979 30.9422 145.309 32 142.053 32C138.796 32 136.085 30.9421 133.961 28.8468C132.525 27.4228 131.574 25.7546 131.089 23.822C130.725 22.2759 131.939 20.8112 133.537 20.7298C134.791 20.6688 135.863 21.5029 136.186 22.7031C136.47 23.6796 136.935 24.534 137.643 25.2664C138.796 26.4666 140.252 27.0566 142.053 27.0566C143.792 27.0566 145.228 26.4666 146.341 25.2664C147.453 24.0661 148.02 22.52 148.02 20.6484V2.54291C148.02 1.13922 149.173 0 150.589 0H150.609C152.025 0 153.178 1.13922 153.178 2.54291V20.8926C153.178 24.1068 152.146 26.7921 150.063 28.8671Z" fill="#E5C580"/>
<path d="M196.546 5.6769V14.6483C196.546 14.9738 196.809 15.2179 197.133 15.2179H203.383C205.103 15.2179 206.478 14.75 207.51 13.7939C208.541 12.8581 209.067 11.6375 209.067 10.1524C209.067 8.66737 208.541 7.46711 207.51 6.51097C206.478 5.55484 205.103 5.08694 203.403 5.08694H197.153C196.809 5.10729 196.546 5.37175 196.546 5.6769ZM208.663 30.455L202.736 20.3444C202.635 20.1613 202.432 20.0596 202.23 20.0596H197.133C196.809 20.0596 196.546 20.3241 196.546 20.6292V29.1937C196.546 30.5771 195.413 31.6756 194.038 31.6756H193.856C192.46 31.6756 191.348 30.5567 191.348 29.1937V1.40481C191.348 0.774165 191.873 0.245239 192.521 0.245239H203.707C206.781 0.245239 209.33 1.18103 211.353 3.05261C213.376 4.9242 214.387 7.30436 214.387 10.1931C214.387 12.2885 213.801 14.1601 212.627 15.7875C211.454 17.415 209.897 18.5949 207.934 19.3069L213.032 27.9121C214.023 29.5803 212.809 31.6756 210.868 31.6756C209.937 31.696 209.108 31.2281 208.663 30.455Z" fill="#E5C580"/>
<path d="M231.46 26.895C234.656 26.895 237.285 25.8778 239.328 23.8231C241.371 21.7684 242.383 19.1645 242.383 15.9909C242.383 12.8174 241.371 10.2135 239.328 8.15878C237.285 6.10411 234.676 5.08694 231.46 5.08694H226.221C225.897 5.08694 225.634 5.35141 225.634 5.65656V26.305C225.634 26.6305 225.897 26.8746 226.221 26.8746H231.46V26.895ZM231.601 0.265583C233.907 0.265583 236.051 0.652105 238.054 1.44549C240.057 2.23888 241.756 3.31708 243.172 4.70042C244.588 6.08376 245.68 7.75191 246.489 9.70487C247.298 11.6578 247.703 13.7532 247.703 15.9909C247.703 18.9814 247.015 21.6871 245.639 24.0876C244.264 26.4881 242.342 28.3597 239.895 29.7023C237.447 31.045 234.676 31.7163 231.621 31.7163H221.568C220.921 31.7163 220.395 31.2077 220.395 30.5567V1.40481C220.395 0.774165 220.921 0.245239 221.568 0.245239H231.601V0.265583Z" fill="#E5C580"/>
<path d="M258.626 26.8339H269.367C270.682 26.8339 271.734 27.8918 271.734 29.1937V29.3565C271.734 30.6585 270.662 31.7163 269.367 31.7163H253.974C253.326 31.7163 252.8 31.2077 252.8 30.5567V1.40481C252.8 0.774165 253.326 0.245239 253.974 0.245239H268.882C270.196 0.245239 271.268 1.30309 271.268 2.60506V2.74746C271.268 4.04944 270.196 5.10729 268.882 5.10729H258.626C258.302 5.10729 258.039 5.37175 258.039 5.6769V12.7157C258.039 13.0412 258.302 13.2853 258.626 13.2853H267.708C269.023 13.2853 270.075 14.3431 270.075 15.6451V15.6858C270.075 16.9878 269.003 18.0456 267.708 18.0456H258.626C258.302 18.0456 258.039 18.3101 258.039 18.6152V26.244C258.039 26.5695 258.302 26.8339 258.626 26.8339Z" fill="#E5C580"/>
<path d="M300.276 0.265583H300.296C301.692 0.265583 302.824 1.38446 302.824 2.76781V28.8479C302.824 30.4143 301.53 31.696 299.932 31.696H299.912C298.981 31.696 298.131 31.2484 297.585 30.5161L283.001 10.6813C282.677 10.2338 281.949 10.4576 281.949 11.0272V29.1937C281.949 30.5771 280.816 31.696 279.421 31.696H279.36C277.964 31.696 276.831 30.5771 276.831 29.1937V3.33742C276.831 1.62858 278.227 0.245239 279.947 0.245239C280.938 0.245239 281.888 0.713135 282.475 1.52687L296.655 20.8937C296.978 21.3412 297.707 21.1175 297.707 20.5478V2.76781C297.747 1.38446 298.88 0.265583 300.276 0.265583Z" fill="#E5C580"/>
<path d="M185.502 28.1969L174.761 2.483C174.194 1.14034 172.859 0.245239 171.383 0.245239C169.886 0.245239 168.551 1.14034 167.985 2.52369L157.567 28.2173C156.9 29.8854 158.133 31.696 159.934 31.696C160.986 31.696 161.936 31.0653 162.321 30.0889L170.533 9.27766C170.857 8.46393 172.03 8.46393 172.354 9.27766L176.662 20.0596H171.504C170.169 20.0596 169.077 21.1378 169.077 22.4805C169.077 23.8231 170.169 24.9013 171.504 24.9013H178.604L180.688 30.1092C181.072 31.0857 182.023 31.7163 183.075 31.7163H183.176C184.956 31.696 186.19 29.8651 185.502 28.1969Z" fill="#E5C580"/>
<path d="M330.667 0.761896C332.826 0.761896 334.826 1.1487 336.707 1.90195C338.589 2.65521 340.173 3.71383 341.48 5.05747C342.807 6.40111 343.837 8.00941 344.59 9.90272C345.342 11.796 345.719 13.8115 345.719 15.9898C345.719 18.1681 345.342 20.204 344.59 22.0973C343.837 23.9906 342.787 25.5989 341.48 26.9425C340.173 28.2861 338.569 29.3448 336.707 30.098C334.846 30.8513 332.826 31.2381 330.706 31.2381H319.497V0.761896H330.667ZM330.528 25.1306C333.063 25.1306 335.143 24.2756 336.747 22.5655C338.351 20.8554 339.163 18.6567 339.163 15.9898C339.163 13.3229 338.351 11.1242 336.747 9.43448C335.143 7.74475 333.063 6.88971 330.528 6.88971H325.874V25.1306H330.528Z" fill="#E5C580"/>
<path d="M351.545 31.238V0.761841H357.373V31.238H351.545Z" fill="#E5C580"/>
<path d="M381.565 31.2177L375.831 20.8286H371.747V31.2177H365.385V0.761841H377.265C380.21 0.761841 382.664 1.7174 384.628 3.62851C386.572 5.53963 387.554 7.93869 387.554 10.8664C387.554 12.8385 387.083 14.5869 386.12 16.1524C385.158 17.6976 383.862 18.8971 382.193 19.7307L388.693 31.238H381.565V31.2177ZM371.747 6.86115V14.7496H376.833C378.148 14.7496 379.189 14.3836 379.955 13.6517C380.721 12.9198 381.094 11.9846 381.094 10.8257C381.094 9.66683 380.721 8.71127 379.955 7.97935C379.189 7.24744 378.148 6.88148 376.833 6.88148H371.747V6.86115Z" fill="#E5C580"/>
<path d="M400.171 25.094H412.001V31.238H393.792V0.761841H411.547V6.86522H400.171V12.8872H410.421V18.8685H400.171V25.094Z" fill="#E5C580"/>
<path d="M431.012 32C428.867 32 426.842 31.59 424.936 30.77C423.029 29.95 421.401 28.8225 420.051 27.4286C418.701 26.0141 417.629 24.3126 416.834 22.3447C416.04 20.3767 415.643 18.2652 415.643 16.0308C415.643 13.7758 416.04 11.6643 416.834 9.67585C417.629 7.68738 418.701 5.98591 420.051 4.57143C421.401 3.15695 423.029 2.04997 424.936 1.22998C426.842 0.409994 428.867 0 431.012 0C434.625 0 437.743 1.12748 440.404 3.38245C443.044 5.63741 444.712 8.58937 445.407 12.2178H438.954C438.338 10.3933 437.326 8.95836 435.916 7.91288C434.506 6.86739 432.878 6.3344 431.012 6.3344C428.49 6.3344 426.385 7.25689 424.697 9.10186C423.01 10.9468 422.176 13.2633 422.176 16.0308C422.176 18.7777 423.01 21.0737 424.697 22.9186C426.385 24.7431 428.49 25.6656 431.012 25.6656C432.957 25.6656 434.645 25.0916 436.075 23.9641C437.505 22.8366 438.478 21.2787 439.014 19.3312H445.507C444.831 23.1236 443.164 26.1986 440.503 28.5151C437.842 30.8315 434.685 32 431.012 32Z" fill="#E5C580"/>
<path d="M471 0.761841V6.88556H462.862V31.238H456.539V6.88556H448.42V0.761841H471Z" fill="#E5C580"/>
<path d="M30.1741 168.36C25.2301 168.36 20.7661 167.256 16.7821 165.048C12.8461 162.84 9.72613 159.792 7.42213 155.904C5.16613 152.016 4.03813 147.648 4.03813 142.8C4.03813 137.952 5.16613 133.584 7.42213 129.696C9.72613 125.808 12.8461 122.76 16.7821 120.552C20.7661 118.344 25.2301 117.24 30.1741 117.24C33.8221 117.24 37.1821 117.84 40.2541 119.04C43.3261 120.192 45.9421 121.92 48.1021 124.224L45.7981 126.6C41.7661 122.616 36.6061 120.624 30.3181 120.624C26.0941 120.624 22.2541 121.584 18.7981 123.504C15.3421 125.424 12.6301 128.088 10.6621 131.496C8.69413 134.856 7.71013 138.624 7.71013 142.8C7.71013 146.976 8.69413 150.768 10.6621 154.176C12.6301 157.536 15.3421 160.176 18.7981 162.096C22.2541 164.016 26.0941 164.976 30.3181 164.976C36.5581 164.976 41.7181 162.96 45.7981 158.928L48.1021 161.304C45.9421 163.608 43.3021 165.36 40.1821 166.56C37.1101 167.76 33.7741 168.36 30.1741 168.36ZM80.7305 168.36C75.7865 168.36 71.3225 167.256 67.3385 165.048C63.3545 162.792 60.2105 159.72 57.9065 155.832C55.6505 151.944 54.5225 147.6 54.5225 142.8C54.5225 138 55.6505 133.656 57.9065 129.768C60.2105 125.88 63.3545 122.832 67.3385 120.624C71.3225 118.368 75.7865 117.24 80.7305 117.24C85.6745 117.24 90.1385 118.344 94.1225 120.552C98.1065 122.76 101.227 125.808 103.483 129.696C105.787 133.584 106.939 137.952 106.939 142.8C106.939 147.648 105.787 152.016 103.483 155.904C101.227 159.792 98.1065 162.84 94.1225 165.048C90.1385 167.256 85.6745 168.36 80.7305 168.36ZM80.7305 164.976C84.9545 164.976 88.7705 164.016 92.1785 162.096C95.5865 160.176 98.2745 157.536 100.243 154.176C102.211 150.768 103.195 146.976 103.195 142.8C103.195 138.624 102.211 134.856 100.243 131.496C98.2745 128.088 95.5865 125.424 92.1785 123.504C88.7705 121.584 84.9545 120.624 80.7305 120.624C76.5065 120.624 72.6665 121.584 69.2105 123.504C65.8025 125.424 63.1145 128.088 61.1465 131.496C59.1785 134.856 58.1945 138.624 58.1945 142.8C58.1945 146.976 59.1785 150.768 61.1465 154.176C63.1145 157.536 65.8025 160.176 69.2105 162.096C72.6665 164.016 76.5065 164.976 80.7305 164.976ZM167.339 168L167.267 124.872L146.171 161.304H144.371L123.275 125.016V168H119.675V117.6H122.771L145.307 156.552L167.843 117.6H170.867L170.939 168H167.339ZM188.511 117.6H192.183V168H188.511V117.6ZM250.785 117.6V168H247.761L213.417 124.224V168H209.745V117.6H212.841L247.113 161.376V117.6H250.785ZM304.386 143.016H307.914V161.88C305.706 163.992 303.018 165.6 299.85 166.704C296.73 167.808 293.418 168.36 289.914 168.36C284.922 168.36 280.41 167.256 276.378 165.048C272.394 162.84 269.25 159.792 266.946 155.904C264.69 152.016 263.562 147.648 263.562 142.8C263.562 137.952 264.69 133.584 266.946 129.696C269.25 125.808 272.394 122.76 276.378 120.552C280.41 118.344 284.946 117.24 289.986 117.24C293.682 117.24 297.066 117.84 300.138 119.04C303.258 120.192 305.922 121.896 308.13 124.152L305.826 126.6C303.714 124.488 301.338 122.976 298.698 122.064C296.106 121.104 293.226 120.624 290.058 120.624C285.738 120.624 281.826 121.584 278.322 123.504C274.866 125.424 272.154 128.088 270.186 131.496C268.218 134.856 267.234 138.624 267.234 142.8C267.234 146.928 268.218 150.696 270.186 154.104C272.202 157.464 274.938 160.128 278.394 162.096C281.85 164.016 285.738 164.976 290.058 164.976C295.818 164.976 300.594 163.44 304.386 160.368V143.016ZM356.525 168.72C352.637 168.72 348.869 168.168 345.221 167.064C341.621 165.96 338.765 164.496 336.653 162.672L339.893 155.4C341.957 157.032 344.477 158.376 347.453 159.432C350.477 160.44 353.501 160.944 356.525 160.944C360.269 160.944 363.053 160.344 364.877 159.144C366.749 157.944 367.685 156.36 367.685 154.392C367.685 152.952 367.157 151.776 366.101 150.864C365.093 149.904 363.797 149.16 362.213 148.632C360.629 148.104 358.469 147.504 355.733 146.832C351.893 145.92 348.773 145.008 346.373 144.096C344.021 143.184 341.981 141.768 340.253 139.848C338.573 137.88 337.733 135.24 337.733 131.928C337.733 129.144 338.477 126.624 339.965 124.368C341.501 122.064 343.781 120.24 346.805 118.896C349.877 117.552 353.621 116.88 358.037 116.88C361.109 116.88 364.133 117.264 367.109 118.032C370.085 118.8 372.653 119.904 374.813 121.344L371.861 128.616C369.653 127.32 367.349 126.336 364.949 125.664C362.549 124.992 360.221 124.656 357.965 124.656C354.269 124.656 351.509 125.28 349.685 126.528C347.909 127.776 347.021 129.432 347.021 131.496C347.021 132.936 347.525 134.112 348.533 135.024C349.589 135.936 350.909 136.656 352.493 137.184C354.077 137.712 356.237 138.312 358.973 138.984C362.717 139.848 365.789 140.76 368.189 141.72C370.589 142.632 372.629 144.048 374.309 145.968C376.037 147.888 376.901 150.48 376.901 153.744C376.901 156.528 376.133 159.048 374.597 161.304C373.109 163.56 370.829 165.36 367.757 166.704C364.685 168.048 360.941 168.72 356.525 168.72ZM409.726 168.72C404.59 168.72 399.958 167.616 395.83 165.408C391.702 163.152 388.462 160.056 386.11 156.12C383.758 152.136 382.582 147.696 382.582 142.8C382.582 137.904 383.758 133.488 386.11 129.552C388.462 125.568 391.702 122.472 395.83 120.264C399.958 118.008 404.59 116.88 409.726 116.88C414.862 116.88 419.494 118.008 423.622 120.264C427.75 122.472 430.99 125.544 433.342 129.48C435.694 133.416 436.87 137.856 436.87 142.8C436.87 147.744 435.694 152.184 433.342 156.12C430.99 160.056 427.75 163.152 423.622 165.408C419.494 167.616 414.862 168.72 409.726 168.72ZM409.726 160.512C413.086 160.512 416.11 159.768 418.798 158.28C421.486 156.744 423.598 154.632 425.134 151.944C426.67 149.208 427.438 146.16 427.438 142.8C427.438 139.44 426.67 136.416 425.134 133.728C423.598 130.992 421.486 128.88 418.798 127.392C416.11 125.856 413.086 125.088 409.726 125.088C406.366 125.088 403.342 125.856 400.654 127.392C397.966 128.88 395.854 130.992 394.318 133.728C392.782 136.416 392.014 139.44 392.014 142.8C392.014 146.16 392.782 149.208 394.318 151.944C395.854 154.632 397.966 156.744 400.654 158.28C403.342 159.768 406.366 160.512 409.726 160.512ZM470.335 168.72C465.199 168.72 460.567 167.616 456.439 165.408C452.311 163.152 449.071 160.056 446.719 156.12C444.367 152.136 443.191 147.696 443.191 142.8C443.191 137.904 444.367 133.488 446.719 129.552C449.071 125.568 452.311 122.472 456.439 120.264C460.567 118.008 465.199 116.88 470.335 116.88C475.471 116.88 480.103 118.008 484.231 120.264C488.359 122.472 491.599 125.544 493.951 129.48C496.303 133.416 497.479 137.856 497.479 142.8C497.479 147.744 496.303 152.184 493.951 156.12C491.599 160.056 488.359 163.152 484.231 165.408C480.103 167.616 475.471 168.72 470.335 168.72ZM470.335 160.512C473.695 160.512 476.719 159.768 479.407 158.28C482.095 156.744 484.207 154.632 485.743 151.944C487.279 149.208 488.047 146.16 488.047 142.8C488.047 139.44 487.279 136.416 485.743 133.728C484.207 130.992 482.095 128.88 479.407 127.392C476.719 125.856 473.695 125.088 470.335 125.088C466.975 125.088 463.951 125.856 461.263 127.392C458.575 128.88 456.463 130.992 454.927 133.728C453.391 136.416 452.623 139.44 452.623 142.8C452.623 146.16 453.391 149.208 454.927 151.944C456.463 154.632 458.575 156.744 461.263 158.28C463.951 159.768 466.975 160.512 470.335 160.512ZM552.185 117.6V168H544.481L516.689 133.872V168H507.401V117.6H515.105L542.897 151.728V117.6H552.185Z" fill="white"/>
</svg>
